<svg width="283" height="135" viewBox="0 0 283 135" fill="none" xmlns="http://www.w3.org/2000/svg">
<path d="M40 45C40 42.2386 42.2386 40 45 40H238C240.761 40 243 42.2386 243 45V90C243 92.7614 240.761 95 238 95H45C42.2386 95 40 92.7614 40 90V45Z" fill="#E6E0E9"/>
<path d="M234.616 66.6426C235.033 66.929 235.372 67.2904 235.632 67.7266C235.892 68.1562 236.023 68.6641 236.023 69.25C236.023 69.9531 235.873 70.5488 235.573 71.0371C235.28 71.5189 234.857 71.8997 234.304 72.1797C233.718 72.4792 233.041 72.6908 232.273 72.8145C231.511 72.9382 230.612 73 229.577 73H222.38V72.2383C222.582 72.2188 222.836 72.1895 223.142 72.1504C223.448 72.1113 223.663 72.0658 223.786 72.0137C224.027 71.916 224.19 71.7891 224.275 71.6328C224.366 71.4701 224.411 71.2617 224.411 71.0078V61.2422C224.411 61.0078 224.376 60.8125 224.304 60.6562C224.232 60.5 224.06 60.3633 223.786 60.2461C223.584 60.1615 223.35 60.0931 223.083 60.041C222.816 59.9824 222.582 59.9368 222.38 59.9043V59.1426H229.909C231.804 59.1426 233.171 59.403 234.011 59.9238C234.851 60.4447 235.271 61.2129 235.271 62.2285C235.271 62.6973 235.176 63.1107 234.987 63.4688C234.799 63.8203 234.529 64.1263 234.177 64.3867C233.858 64.6276 233.477 64.8359 233.034 65.0117C232.592 65.1875 232.116 65.334 231.609 65.4512V65.6367C232.116 65.6888 232.644 65.8027 233.191 65.9785C233.737 66.1478 234.213 66.3691 234.616 66.6426ZM231.472 62.4727C231.472 61.7044 231.254 61.1055 230.818 60.6758C230.388 60.2461 229.74 60.0312 228.874 60.0312C228.751 60.0312 228.588 60.0378 228.386 60.0508C228.191 60.0573 228.021 60.0638 227.878 60.0703V65.207H228.386C229.441 65.207 230.219 64.9629 230.72 64.4746C231.221 63.9798 231.472 63.3125 231.472 62.4727ZM232.155 69.123C232.155 68.1595 231.869 67.4206 231.296 66.9062C230.723 66.3919 229.9 66.1348 228.825 66.1348C228.702 66.1348 228.536 66.1413 228.327 66.1543C228.126 66.1608 227.976 66.1673 227.878 66.1738V71.2422C227.937 71.4831 228.119 71.6882 228.425 71.8574C228.731 72.0202 229.102 72.1016 229.538 72.1016C230.313 72.1016 230.941 71.8411 231.423 71.3203C231.911 70.7995 232.155 70.0671 232.155 69.123Z" fill="#172026"/>
<path d="M221.057 59.9043C220.869 59.9238 220.595 59.9694 220.237 60.041C219.886 60.1061 219.589 60.2233 219.348 60.3926C219.101 60.5553 218.925 60.8483 218.821 61.2715C218.723 61.6947 218.675 62.3294 218.675 63.1758V68.332C218.675 69.849 218.16 71.0697 217.132 71.9941C216.103 72.9186 214.742 73.3809 213.05 73.3809C211.077 73.3809 209.55 72.9349 208.47 72.043C207.389 71.151 206.848 69.9076 206.848 68.3125V61.2227C206.848 60.9948 206.803 60.7995 206.712 60.6367C206.627 60.474 206.461 60.3275 206.214 60.1973C206.044 60.1126 205.836 60.0443 205.589 59.9922C205.341 59.9401 205.139 59.9043 204.983 59.8848V59.1426H212.249V59.8848C212.041 59.8978 211.829 59.9238 211.614 59.9629C211.399 59.9954 211.181 60.0475 210.96 60.1191C210.712 60.1973 210.546 60.3275 210.462 60.5098C210.377 60.6921 210.335 60.8971 210.335 61.125V68.1172C210.335 69.4909 210.638 70.4902 211.243 71.1152C211.848 71.7402 212.727 72.0527 213.88 72.0527C215.013 72.0527 215.901 71.7077 216.546 71.0176C217.19 70.3275 217.513 69.3118 217.513 67.9707V63.2734C217.513 62.4401 217.454 61.8184 217.337 61.4082C217.226 60.9915 217.054 60.6921 216.819 60.5098C216.65 60.3665 216.354 60.2363 215.93 60.1191C215.514 60.002 215.221 59.9303 215.052 59.9043V59.1426H221.057V59.9043Z" fill="#172026"/>
<path d="M203.153 73H195.662V72.2383C195.825 72.2253 196.063 72.2057 196.375 72.1797C196.688 72.1536 196.903 72.1146 197.02 72.0625C197.261 71.9648 197.427 71.8379 197.518 71.6816C197.609 71.5189 197.655 71.3138 197.655 71.0664V66.291H191.737V70.959C191.737 71.1803 191.782 71.3789 191.873 71.5547C191.971 71.7305 192.134 71.8672 192.362 71.9648C192.485 72.0169 192.697 72.0723 192.996 72.1309C193.296 72.1895 193.54 72.2253 193.729 72.2383V73H186.239V72.2383C186.401 72.2318 186.639 72.2122 186.952 72.1797C187.271 72.1406 187.502 72.0951 187.645 72.043C187.879 71.9583 188.042 71.8314 188.133 71.6621C188.224 71.4863 188.27 71.2812 188.27 71.0469V61.2422C188.27 61.0143 188.228 60.8223 188.143 60.666C188.065 60.5098 187.899 60.373 187.645 60.2559C187.456 60.1712 187.209 60.0964 186.903 60.0312C186.597 59.9596 186.375 59.9173 186.239 59.9043V59.1426H193.729V59.9043C193.527 59.9173 193.286 59.9499 193.006 60.002C192.726 60.054 192.511 60.1029 192.362 60.1484C192.108 60.2331 191.939 60.3698 191.854 60.5586C191.776 60.7409 191.737 60.9362 191.737 61.1445V65.2852H197.655V61.2422C197.655 61.0143 197.612 60.8223 197.528 60.666C197.443 60.5098 197.274 60.373 197.02 60.2559C196.851 60.1777 196.623 60.1061 196.336 60.041C196.056 59.9694 195.832 59.9238 195.662 59.9043V59.1426H203.153V59.9043C202.944 59.9173 202.71 59.9466 202.45 59.9922C202.189 60.0312 201.955 60.0833 201.746 60.1484C201.499 60.2331 201.333 60.3665 201.248 60.5488C201.164 60.7311 201.121 60.9297 201.121 61.1445V70.959C201.121 71.1934 201.164 71.3919 201.248 71.5547C201.333 71.7174 201.499 71.8542 201.746 71.9648C201.903 72.0299 202.127 72.0885 202.42 72.1406C202.72 72.1927 202.964 72.2253 203.153 72.2383V73Z" fill="#172026"/>
<path d="M184.828 63.1074H184.076C183.874 62.515 183.549 61.8802 183.1 61.2031C182.657 60.526 182.247 60.1615 181.869 60.1094C181.661 60.0833 181.404 60.0605 181.098 60.041C180.792 60.0215 180.528 60.0117 180.307 60.0117H179.848V70.8809C179.848 71.1152 179.89 71.3236 179.975 71.5059C180.059 71.6816 180.225 71.8216 180.473 71.9258C180.622 71.9844 180.854 72.0462 181.166 72.1113C181.485 72.1699 181.755 72.2122 181.977 72.2383V73H174.252V72.2383C174.441 72.2188 174.704 72.1927 175.043 72.1602C175.388 72.1211 175.622 72.0755 175.746 72.0234C176 71.9193 176.169 71.7793 176.254 71.6035C176.339 71.4277 176.381 71.2194 176.381 70.9785V60.0117H175.922C175.701 60.0117 175.437 60.0215 175.131 60.041C174.825 60.0605 174.568 60.0833 174.359 60.1094C173.982 60.1615 173.568 60.526 173.119 61.2031C172.676 61.8802 172.354 62.515 172.152 63.1074H171.4V59.1426H184.828V63.1074Z" fill="#172026"/>
<path d="M170.048 73H162.363V72.2383C162.539 72.2253 162.796 72.2057 163.134 72.1797C163.479 72.1536 163.717 72.1146 163.847 72.0625C164.088 71.9648 164.251 71.8379 164.336 71.6816C164.427 71.5189 164.472 71.3138 164.472 71.0664V61.2422C164.472 61.0208 164.43 60.8255 164.345 60.6562C164.261 60.487 164.095 60.3503 163.847 60.2461C163.691 60.181 163.46 60.1159 163.154 60.0508C162.848 59.9792 162.584 59.9303 162.363 59.9043V59.1426H170.048V59.9043C169.853 59.9238 169.609 59.9531 169.316 59.9922C169.023 60.0247 168.776 60.0736 168.574 60.1387C168.32 60.2233 168.151 60.3568 168.066 60.5391C167.981 60.7148 167.939 60.9167 167.939 61.1445V70.959C167.939 71.1934 167.981 71.3952 168.066 71.5645C168.157 71.7272 168.326 71.8607 168.574 71.9648C168.711 72.0234 168.935 72.082 169.248 72.1406C169.567 72.1927 169.834 72.2253 170.048 72.2383V73Z" fill="#172026"/>
<path d="M161.099 67.3652C160.897 67.3848 160.718 67.4076 160.562 67.4336C160.405 67.4596 160.21 67.5117 159.976 67.5898C159.709 67.6745 159.533 67.8145 159.448 68.0098C159.364 68.2051 159.321 68.4102 159.321 68.625V70.2363C159.321 70.5618 159.325 70.8255 159.331 71.0273C159.338 71.2227 159.348 71.4668 159.361 71.7598C158.709 72.1504 157.746 72.5182 156.47 72.8633C155.2 73.2083 154.032 73.3809 152.964 73.3809C151.961 73.3809 151.021 73.2279 150.142 72.9219C149.263 72.6159 148.491 72.1569 147.827 71.5449C147.163 70.9395 146.639 70.1875 146.255 69.2891C145.877 68.3906 145.689 67.362 145.689 66.2031C145.689 65.1224 145.868 64.123 146.226 63.2051C146.584 62.2871 147.101 61.4961 147.779 60.832C148.443 60.1745 149.25 59.6667 150.2 59.3086C151.157 58.9505 152.215 58.7715 153.374 58.7715C154.162 58.7715 154.891 58.8691 155.562 59.0645C156.232 59.2533 156.786 59.4583 157.222 59.6797L157.827 59.1426H158.677L158.765 64.2012H157.905C157.411 62.6842 156.818 61.5579 156.128 60.8223C155.438 60.0866 154.566 59.7188 153.511 59.7188C152.261 59.7188 151.294 60.2656 150.611 61.3594C149.933 62.4531 149.595 63.9603 149.595 65.8809C149.595 67.9186 149.927 69.5137 150.591 70.666C151.262 71.8184 152.209 72.3945 153.433 72.3945C154.006 72.3945 154.514 72.3099 154.956 72.1406C155.405 71.9648 155.754 71.763 156.001 71.5352V68.7227C156.001 68.4883 155.959 68.293 155.874 68.1367C155.79 67.974 155.62 67.834 155.366 67.7168C155.171 67.6257 154.927 67.5508 154.634 67.4922C154.341 67.4336 154.097 67.3913 153.902 67.3652V66.6035H161.099V67.3652Z" fill="#172026"/>
<path d="M139.371 59.9043C139.137 59.9303 138.922 59.9727 138.727 60.0312C138.532 60.0898 138.346 60.1712 138.17 60.2754C137.89 60.4316 137.64 60.6335 137.418 60.8809C137.203 61.1217 136.992 61.3919 136.784 61.6914C136.36 62.3099 135.914 62.9837 135.446 63.7129C134.983 64.4355 134.479 65.2331 133.932 66.1055C133.574 66.6589 133.353 67.0853 133.268 67.3848C133.19 67.6777 133.151 68.1888 133.151 68.918V70.8809C133.151 71.1152 133.193 71.3203 133.278 71.4961C133.369 71.6719 133.538 71.8151 133.786 71.9258C133.896 71.9714 134.131 72.0332 134.489 72.1113C134.847 72.1829 135.11 72.2253 135.28 72.2383V73H127.555V72.2383C127.737 72.2253 127.998 72.1992 128.336 72.1602C128.681 72.1211 128.922 72.0755 129.059 72.0234C129.3 71.9193 129.463 71.7826 129.547 71.6133C129.638 71.4375 129.684 71.2259 129.684 70.9785V68.5371C129.684 68.3223 129.681 68.1335 129.674 67.9707C129.668 67.8079 129.645 67.6712 129.606 67.5605C129.56 67.4368 129.482 67.2806 129.371 67.0918C129.261 66.8965 129.118 66.6458 128.942 66.3398C128.44 65.4609 127.955 64.6276 127.487 63.8398C127.018 63.0521 126.572 62.3132 126.149 61.623C125.927 61.265 125.703 60.9785 125.475 60.7637C125.254 60.5423 125.026 60.3633 124.791 60.2266C124.616 60.1289 124.401 60.054 124.147 60.002C123.899 59.9499 123.675 59.9173 123.473 59.9043V59.1426H131.412V59.9043C130.683 59.9238 130.192 59.9759 129.938 60.0605C129.684 60.1387 129.557 60.2493 129.557 60.3926C129.557 60.4642 129.603 60.6074 129.694 60.8223C129.791 61.0371 129.961 61.3691 130.202 61.8184C130.423 62.2415 130.745 62.8242 131.168 63.5664C131.598 64.3086 132.112 65.1777 132.711 66.1738C133.948 64.2142 134.798 62.847 135.26 62.0723C135.722 61.291 135.953 60.8125 135.953 60.6367C135.953 60.4154 135.817 60.2461 135.543 60.1289C135.276 60.0117 134.84 59.9368 134.235 59.9043V59.1426H139.371V59.9043Z" fill="#172026"/>
<path d="M122.717 73H115.207V72.2383C115.428 72.2188 115.699 72.1862 116.018 72.1406C116.343 72.0951 116.564 72.0462 116.682 71.9941C116.923 71.8965 117.095 71.763 117.199 71.5938C117.303 71.4245 117.355 71.2096 117.355 70.9492V60.5977L112.59 72.7754H111.359C111.301 72.5605 111.154 72.1341 110.92 71.4961C110.692 70.8581 110.507 70.347 110.363 69.9629L106.857 60.4414V68.8691C106.857 69.6764 106.91 70.2917 107.014 70.7148C107.124 71.1315 107.3 71.4375 107.541 71.6328C107.704 71.7695 107.993 71.8997 108.41 72.0234C108.833 72.1471 109.13 72.2188 109.299 72.2383V73H103.342V72.2383C103.505 72.2188 103.768 72.1764 104.133 72.1113C104.504 72.0397 104.807 71.9193 105.041 71.75C105.301 71.5677 105.477 71.2617 105.568 70.832C105.66 70.3958 105.705 69.7773 105.705 68.9766V62.1113C105.705 61.6947 105.653 61.3496 105.549 61.0762C105.445 60.7962 105.288 60.5749 105.08 60.4121C104.82 60.2103 104.553 60.0801 104.279 60.0215C104.006 59.9629 103.729 59.9238 103.449 59.9043V59.1426H109.826L113.244 68.293L116.125 60.8613C116.223 60.5879 116.317 60.2624 116.408 59.8848C116.499 59.5072 116.548 59.2598 116.555 59.1426H122.697V59.9043C122.489 59.9173 122.271 59.9434 122.043 59.9824C121.815 60.0215 121.597 60.0736 121.389 60.1387C121.135 60.2233 120.965 60.3568 120.881 60.5391C120.803 60.7214 120.764 60.9232 120.764 61.1445V70.959C120.764 71.1934 120.803 71.3919 120.881 71.5547C120.965 71.7109 121.135 71.8477 121.389 71.9648C121.519 72.0234 121.73 72.0788 122.023 72.1309C122.323 72.1829 122.554 72.2188 122.717 72.2383V73Z" fill="#172026"/>
<g clip-path="url(#clip0_2_117)">
<path d="M61 82C51 85 51 77 47 76M75 88V80.26C75.075 79.3063 74.9462 78.3476 74.622 77.4476C74.2979 76.5476 73.7859 75.7268 73.12 75.04C79.4 74.34 86 71.96 86 61.04C85.9995 58.2477 84.9254 55.5624 83 53.54C83.9117 51.097 83.8472 48.3967 82.82 46C82.82 46 80.46 45.3 75 48.96C70.416 47.7176 65.584 47.7176 61 48.96C55.54 45.3 53.18 46 53.18 46C52.1528 48.3967 52.0883 51.097 53 53.54C51.0603 55.5774 49.985 58.2869 50 61.1C50 71.94 56.6 74.32 62.88 75.1C62.222 75.7799 61.7145 76.5908 61.3906 77.4798C61.0667 78.3689 60.9336 79.3161 61 80.26V88" stroke="#172026" stroke-width="4" stroke-linecap="round" stroke-linejoin="round"/>
</g>
<defs>
<clipPath id="clip0_2_117">
<rect width="48" height="48" fill="white" transform="translate(43 44)"/>
</clipPath>
</defs>
</svg>
